<svg xmlns="http://www.w3.org/2000/svg" width="256" height="256" viewBox="0 0 256 256" version="1.1">
	<path d="M 128.102 25.425 C 126.294 26.758, 123.169 29.354, 121.158 31.193 C 117.692 34.361, 107.855 42.890, 87.727 60.181 C 82.809 64.405, 78.222 68.680, 77.532 69.681 C 76.456 71.243, 67.361 102.149, 55.956 143 C 53.717 151.020, 52.028 155.166, 50.373 156.702 C 48.252 158.671, 48 159.765, 48 167.018 C 48 171.480, 48.443 175.960, 48.985 176.973 C 50.121 179.094, 48.194 179.775, 20.500 187.041 C 11.700 189.350, 3.487 191.871, 2.250 192.643 C -1.424 194.934, -0.615 198.470, 4.925 204.327 C 17.032 217.128, 47.225 227.366, 85.500 231.649 C 111.682 234.578, 146.837 232.663, 174 226.829 C 208.654 219.385, 234.526 203.271, 228.102 193.131 C 227.626 192.379, 218.070 189.389, 206.868 186.488 C 174.616 178.135, 177.923 179.333, 179.036 176.406 C 179.566 175.011, 180 170.503, 180 166.387 C 180 159.694, 179.737 158.660, 177.505 156.592 C 175.671 154.892, 172.742 147.618, 166.438 129.108 C 161.723 115.263, 158.008 103.199, 158.183 102.300 C 158.525 100.538, 176.317 84, 177.871 84 C 178.387 84, 181.941 89.287, 185.770 95.750 C 195.954 112.940, 197.621 116.191, 196.500 116.684 C 187.955 120.438, 184.466 122.737, 184.173 124.805 C 183.648 128.510, 185.475 129.635, 195.775 131.955 C 201.124 133.159, 206.256 134.357, 207.180 134.617 C 208.104 134.878, 210.207 137.478, 211.854 140.395 C 216.682 148.949, 224.325 151.305, 231.486 146.445 C 236.160 143.273, 250.836 131.016, 253.396 128.146 C 256.542 124.618, 256.480 117.469, 253.248 111.001 C 249.813 104.129, 247.406 103.103, 238.854 104.869 C 235.488 105.565, 232.387 105.766, 231.964 105.317 C 231.541 104.868, 227.488 91.901, 222.957 76.502 C 218.426 61.103, 213.995 47.506, 213.110 46.285 C 212.224 45.065, 210.150 43.424, 208.500 42.638 C 203.166 40.100, 139.496 23, 135.378 23 C 132.726 23, 130.287 23.813, 128.102 25.425 M 98.872 148.654 C 97.983 149.726, 97.589 152.320, 97.752 156.030 C 97.933 160.140, 97.581 162.103, 96.502 162.998 C 94.579 164.595, 94.578 167.405, 96.500 169 C 97.325 169.685, 98 171.710, 98 173.500 C 98 175.290, 98.587 177.242, 99.305 177.838 C 100.067 178.471, 106.546 179.042, 114.876 179.211 C 132.825 179.575, 132 180.357, 132 162.964 C 132 146.326, 132.748 147, 114.294 147 C 102.444 147, 100.030 147.259, 98.872 148.654" stroke="none" fill="black" fill-rule="evenodd"/>
</svg>